<svg id="Group_2" data-name="Group 2" xmlns="http://www.w3.org/2000/svg" xmlns:xlink="http://www.w3.org/1999/xlink" width="152.172" height="48.465" viewBox="0 0 152.172 48.465">
  <defs>
    <clipPath id="clip-path">
      <rect id="Rectangle_2" data-name="Rectangle 2" width="152.172" height="48.465" fill="none"/>
    </clipPath>
  </defs>
  <g id="Group_1" data-name="Group 1" clip-path="url(#clip-path)">
    <path id="Path_1" data-name="Path 1" d="M115.1,32.955V31.433a7.411,7.411,0,0,0,1-.071,7.154,7.154,0,0,0,2.451-.79,8.556,8.556,0,0,0,4.151-4.779,9.094,9.094,0,0,0,.54-1.851c.079-.408.2-.959.234-1.368a11.674,11.674,0,0,0,.049-2.155,10.126,10.126,0,0,0-.77-3.072,9.515,9.515,0,0,0-3.612-4.376,7.341,7.341,0,0,0-4.04-1.121V10.327c6.328.106,12.739,4.162,12.807,11.351S121.256,32.8,115.1,32.955m15.806-6.28a.991.991,0,0,1,.585-.036c.549.088.863.568,1.152.95.247.328.534.623.8.947a7.675,7.675,0,0,0,1.052,1.047,12.607,12.607,0,0,0,1.17.915,8.16,8.16,0,0,0,1.824.8,10.339,10.339,0,0,0,3,.338,17.731,17.731,0,0,0,1.92-.073c.41-.045.821-.085,1.225-.165a10.884,10.884,0,0,0,1.316-.311,7.518,7.518,0,0,0,1.761-.806,3.3,3.3,0,0,0,1.512-2.138,2.993,2.993,0,0,0-.2-1.628,4.132,4.132,0,0,0-2.67-2.578,16.884,16.884,0,0,0-3.292-.951c-.576-.112-1.168-.207-1.737-.311-.858-.156-1.729-.261-2.578-.439a21.838,21.838,0,0,1-4.023-1.116,5.362,5.362,0,0,1-2.542-2.066,5.186,5.186,0,0,1-.549-1.39,7.021,7.021,0,0,1-.146-.835,7.146,7.146,0,0,1,.037-1.524,4.937,4.937,0,0,1,.274-1.17,4.407,4.407,0,0,1,1.518-1.939,8.944,8.944,0,0,1,2.487-1.262,11.791,11.791,0,0,1,1.39-.366c.528-.1.933-.152,1.334-.2a12.683,12.683,0,0,1,1.271-.076c.29,0,.587-.008.924,0a12.955,12.955,0,0,1,1.409.1,12.043,12.043,0,0,1,1.425.265c.953.269,1.891.554,2.834.841a9.485,9.485,0,0,0,1.664.347,2.246,2.246,0,0,0,1.86-.392c.248-.312.337-.957.974-.778.054.015.041.081.041.124,0,1.2-.006,3.684,0,4.991-.008.074-.1.127-.174.154a1.286,1.286,0,0,1-.983-.167,8.806,8.806,0,0,1-.823-.768c-.326-.3-.6-.589-.93-.848-.138-.107-.282-.252-.424-.359a9.319,9.319,0,0,0-1.846-1.07,8.917,8.917,0,0,0-1.463-.45c-.373-.094-.878-.189-1.275-.258-.443-.077-1.241-.1-1.648-.128a12.333,12.333,0,0,0-1.53.076,7.988,7.988,0,0,0-1.291.185c-1.485.356-2.715.825-3.218,2.176a3.074,3.074,0,0,0,.128,1.994,4.174,4.174,0,0,0,2.926,2.121,8.569,8.569,0,0,0,.951.219c.812.155,1.645.285,2.469.4.754.108,1.706.215,2.458.309s1.547.207,2.249.366c.473.106,1.01.238,1.51.4a7.714,7.714,0,0,1,4.078,2.67,6.156,6.156,0,0,1,.737,1.331,4.8,4.8,0,0,1,.3,1.268,8.455,8.455,0,0,1,0,1.5,6.556,6.556,0,0,1-.231,1.127,6,6,0,0,1-1.52,2.344,10.022,10.022,0,0,1-.859.75,10.039,10.039,0,0,1-2.725,1.335,8,8,0,0,1-1.207.271c-.7.119-1.41.161-2.079.208a22.965,22.965,0,0,1-2.789,0,12.444,12.444,0,0,1-2.012-.286,21.8,21.8,0,0,1-2.126-.525,19.988,19.988,0,0,0-2.806-.723c-.9-.171-1.227.361-1.664.685a1.5,1.5,0,0,1-.914.311,1.745,1.745,0,0,1-.38-.039c0-2.072,0-3.786,0-5.219,0-.168,0-.423.088-.484M99.943,15.989c-.356-.039-.966.123-1.243,0-.443-.2-.586-.826-.853-1.208a6.27,6.27,0,0,0-1.466-1.356,10.5,10.5,0,0,0-7.421-1.784,8.471,8.471,0,0,0-2,.557A9.3,9.3,0,0,0,84.5,13.63a6.785,6.785,0,0,0-1.429,1.784,10.439,10.439,0,0,0-1.167,3.169,13.568,13.568,0,0,0-.113,5.355,11.19,11.19,0,0,0,1.355,3.605,6.824,6.824,0,0,0,2.171,2.452,10.261,10.261,0,0,0,3.756,1.378,9.245,9.245,0,0,0,3.646-.189,11.336,11.336,0,0,0,3.656-1.616,6.093,6.093,0,0,0,1.466-1.356,4.483,4.483,0,0,1,.881-1.18A1.249,1.249,0,0,1,99.943,27c0,1.759,0,3.519,0,5.277a1.844,1.844,0,0,1-1.447-.186c-.307-.229-.607-.81-1.3-.65-.541.125-1.013.259-1.5.408a23.75,23.75,0,0,1-3.64.743,17.981,17.981,0,0,1-2.353.093,24.082,24.082,0,0,1-2.858-.255,12.04,12.04,0,0,1-4.416-1.38,9.23,9.23,0,0,1-4.045-4.608,13.474,13.474,0,0,1-.873-4.949,15.858,15.858,0,0,1,.3-3.315,9.58,9.58,0,0,1,1.057-2.861,9.575,9.575,0,0,1,3.562-3.381A12.514,12.514,0,0,1,86.4,10.62a18.238,18.238,0,0,1,3.3-.316,22.155,22.155,0,0,1,2.394.093,24.666,24.666,0,0,1,3.6.743c.5.132.972.248,1.5.409,1.611.488,1.6-.636,1.945-.812a.735.735,0,0,1,.8-.024c0,1.758,0,3.518,0,5.276M115.1,10.327V11.85c-.083,0-.168,0-.252,0a7.488,7.488,0,0,0-6.289,3.484,11.747,11.747,0,0,0-1.527,3.216,11.77,11.77,0,0,0-.091,5.659,13.133,13.133,0,0,0,.7,2.174,11.5,11.5,0,0,0,1.126,1.9,10.165,10.165,0,0,0,3.085,2.545,6.3,6.3,0,0,0,2.832.6c.1,0,.247,0,.414,0v1.522c-.083,0-.167,0-.25,0-6.218.055-12.428-4.92-12.423-11.282s6.013-11.354,12.422-11.354l.252,0M63.015,23.2V20.95c1.309.017,2.976.025,3.344-.035a5.8,5.8,0,0,0,1.984-.614,3.448,3.448,0,0,0,1.121-1.043,5.086,5.086,0,0,0,.623-1.3,5.905,5.905,0,0,0,.243-1.558,5.556,5.556,0,0,0-.187-1.745,4.923,4.923,0,0,0-.8-1.633,4.483,4.483,0,0,0-.909-.779,4.243,4.243,0,0,0-1-.44,7.991,7.991,0,0,0-1.038-.265c-.347-.06-.8-.1-1.151-.119-.238-.015-.518-.029-.761-.04-.535-.023-.989-.017-1.47-.016v-.957h.763c.421,0,.876.009,1.319.031a25.637,25.637,0,0,1,3.6.4,7.165,7.165,0,0,1,.724.167,9.478,9.478,0,0,1,2.672,1.262,5.983,5.983,0,0,1,1.633,1.614,3.816,3.816,0,0,1,.538,1.5,3.023,3.023,0,0,1,.019.556,4.776,4.776,0,0,1-.519,2.19,5.917,5.917,0,0,1-.79,1.175,5.711,5.711,0,0,1-1.361,1.1,5.532,5.532,0,0,1-1.071.495,12.783,12.783,0,0,1-1.417.352,9.188,9.188,0,0,1-1.726.185,2.074,2.074,0,0,0,.167.705,8.341,8.341,0,0,0,.77,1.695c.089.154.2.377.288.551.22.412.415.849.612,1.3.641,1.458,1.275,3.1,2.561,3.916a7.777,7.777,0,0,0,2.023.8,7.486,7.486,0,0,1,1.577.389.766.766,0,0,1,.353.817,1.337,1.337,0,0,1-.786.915,5.284,5.284,0,0,1-1,.329,3.48,3.48,0,0,1-.7.088,7.952,7.952,0,0,1-1.193-.069,6.64,6.64,0,0,1-1.559-.372A7.066,7.066,0,0,1,67.4,30.155c-.305-.412-.633-.853-.909-1.287a14.713,14.713,0,0,1-.778-1.343c-.154-.3-.365-.689-.486-.918a22.238,22.238,0,0,0-1.464-2.464c-.155-.222-.448-.577-.612-.779l-.132-.161m0-12.792v.957c-.236,0-.479,0-.74-.005-.385-.007-.9-.005-1.318-.005-1.759,0-3.5,0-5.246.008-.038,2.544,0,7.2,0,9.541,2.449.047,3.872,0,5.67.02.13,0,.81.014,1.63.024V23.2c-.42-.5-.76-.837-.9-.978a1.784,1.784,0,0,0-.785-.476c-1.893-.009-3.709-.009-5.613,0,0,1.545,0,3.175,0,4.8q0,.873,0,1.749c.007.624,0,1.284,0,2,0,.764,1,.748,1.462.748,0,.376,0,.69,0,1.133-3.183,0-4.787,0-6.766,0V31.054c.351,0,1.884.034,1.884-.748v-1.5h0c0-3.96.007-7.921,0-11.881V13.288c0-.31,0-.675,0-.928a1.739,1.739,0,0,0-.019-.445c-.1-.233-.414-.316-.631-.408-.343-.146-.8-.323-.928-.687a1.129,1.129,0,0,1,0-.408h12.3ZM29.1,23.918V22.86c2.684-.01,5.4-.016,8.049-.017-1.424-2.667-2.793-5.056-4.258-7.6-1.315,2.277-2.532,4.525-3.791,6.833V19.15c1.612-2.943,3.22-5.89,4.813-8.865a182.951,182.951,0,0,0,9.9,16.591,21.745,21.745,0,0,0,2.415,2.991,9.446,9.446,0,0,0,.985.873c.121.089.342.179.409.316,0,.193,0,.927,0,1.133-2.958,0-5.043-.019-7.822,0,0-.4.011-.726,0-1.133.455.01,1.266,0,1.486-.391.445-.786-.78-2.262-1.679-3.843-.56-.983-1.273-2.053-1.727-2.913-2.849,0-5.827,0-8.783.008m0-13.552a4.667,4.667,0,0,0,.294-.822A5.453,5.453,0,0,0,29.1,6.212Zm0-4.154v4.154a10.972,10.972,0,0,1-3.66,4.077,7.522,7.522,0,0,1-.789.458V1.417a8.553,8.553,0,0,1,.976.592,9.473,9.473,0,0,1,3.471,4.2Zm0,12.938v2.928l-.428.784.428,0v1.057l-1.016,0a9.915,9.915,0,0,0-.784,1.161c-.6,1.05-1.03,1.921-1.618,3.167-.214.487-.715,1.763-.13,2.222a2.908,2.908,0,0,0,1.245.39v1.327H24.652V27.245c.4-.689.746-1.34,1.009-1.82q1.719-3.142,3.44-6.275M24.652,1.417V14.9c-.35.179-.716.341-1.069.49a8.12,8.12,0,0,1-1.434.455V14.263a6,6,0,0,0,1.96-3.109,8.64,8.64,0,0,0,.3-1.431,11.054,11.054,0,0,0-.149-4.05,5.06,5.06,0,0,0-2.007-3.028l-.1-.06V.444c.128.035.263.074.41.118a11.915,11.915,0,0,1,2.094.855m0,25.827v4.944h-2.5V30.548a12.183,12.183,0,0,0,2.5-3.3m-2.5-26.8V2.585A7.474,7.474,0,0,0,18.8,1.713c-.928-.06-1.845-.095-2.755-.114V.015c1.721.018,3.215.053,4.223.114a8.1,8.1,0,0,1,1.885.316m0,13.819v1.582a9.242,9.242,0,0,1-1.44.2c-1.535.089-3.1.125-4.669.133V15.144c1.038-.008,2.1-.019,3.182-.032.165,0,.4-.014.606-.029a4.377,4.377,0,0,0,1.029-.176,4.468,4.468,0,0,0,1.291-.644m0,16.285v1.641H19.775V31.056a5.329,5.329,0,0,0,1.876-.2,2.437,2.437,0,0,0,.5-.3M16.041.015V1.6c-2.829-.058-5.6.042-8.429.043C7.544,6.13,7.56,10.635,7.56,15.124c2.812.038,5.571.042,8.481.02v1.029c-2.866.015-5.739-.061-8.448-.058-.021,3.032.02,9.79.083,13.006a.927.927,0,0,0,.478.759,4.518,4.518,0,0,0,2.5.551v1.755c-3.553-.031-7.09,0-10.658,0V30.431a7.408,7.408,0,0,0,2.631-.551.961.961,0,0,0,.529-.745c-.009-8.641-.043-17.443.03-26.025.062-1.182-1.175-1.288-1.71-1.895A.636.636,0,0,1,1.536.323a5.89,5.89,0,0,1,1.94-.25C6.609.029,11.96-.027,16.041.015" transform="translate(0 0)" fill="#1a1818"/>
    <path id="Path_2" data-name="Path 2" d="M78.953,144.531q0,.54.033.884h-.248a6.644,6.644,0,0,0-.216-1.235,1.011,1.011,0,0,0-.453-.593,2.029,2.029,0,0,0-.992-.189h-.582v6.137a1.827,1.827,0,0,0,.086.658.486.486,0,0,0,.3.281,2.682,2.682,0,0,0,.7.1v.216q-.561-.033-1.585-.033-1.078,0-1.6.033v-.216a2.684,2.684,0,0,0,.7-.1.487.487,0,0,0,.3-.281,1.827,1.827,0,0,0,.086-.658V143.4H74.91a2.03,2.03,0,0,0-.992.189,1.012,1.012,0,0,0-.453.593,6.6,6.6,0,0,0-.216,1.235H73q.033-.345.033-.884,0-.615-.076-1.38.895.032,3.04.032t3.03-.032q-.075.766-.075,1.38" transform="translate(-53.183 -104.35)" fill="#1a1818"/>
    <path id="Path_3" data-name="Path 3" d="M99.847,144.2a2,2,0,0,1,.749-.987,1.964,1.964,0,0,1,1.083-.307,1.5,1.5,0,0,1,1.143.41,1.225,1.225,0,0,1,.291.539,3.523,3.523,0,0,1,.086.874v2.88a.805.805,0,0,0,.183.61.944.944,0,0,0,.636.167v.227q-.992-.043-1.294-.043t-1.207.043v-.227a.743.743,0,0,0,.555-.167.9.9,0,0,0,.156-.61v-3.117a1.976,1.976,0,0,0-.173-.922.724.724,0,0,0-.7-.318,1.29,1.29,0,0,0-.782.248,1.653,1.653,0,0,0-.534.7,2.514,2.514,0,0,0-.194,1.009v2.4a.9.9,0,0,0,.156.61.743.743,0,0,0,.555.167v.227q-.906-.043-1.208-.043t-1.294.043v-.227a.945.945,0,0,0,.636-.167.806.806,0,0,0,.183-.61v-6.148a1.148,1.148,0,0,0-.183-.723.778.778,0,0,0-.636-.226v-.227q.345.033.668.033a3.517,3.517,0,0,0,1.121-.151Z" transform="translate(-71.479 -102.174)" fill="#1a1818"/>
    <path id="Path_4" data-name="Path 4" d="M127.97,154.685a2.143,2.143,0,0,1-.728,1.019,2,2,0,0,1-1.288.426,2.451,2.451,0,0,1-1.326-.35,2.261,2.261,0,0,1-.857-.981,3.4,3.4,0,0,1-.3-1.462,4.044,4.044,0,0,1,.3-1.629,2.408,2.408,0,0,1,.852-1.063,2.233,2.233,0,0,1,1.283-.372,1.893,1.893,0,0,1,1.493.588,2.622,2.622,0,0,1,.523,1.785h-3.375a6.528,6.528,0,0,0-.032.69,3.064,3.064,0,0,0,.232,1.24,1.978,1.978,0,0,0,.614.814,1.323,1.323,0,0,0,.8.286,1.7,1.7,0,0,0,.916-.248,1.859,1.859,0,0,0,.668-.831Zm-2.976-3.71a2.9,2.9,0,0,0-.453,1.467h2.35a3.1,3.1,0,0,0-.242-1.4.84.84,0,0,0-.782-.561,1.067,1.067,0,0,0-.873.5" transform="translate(-90.006 -109.542)" fill="#1a1818"/>
    <path id="Path_5" data-name="Path 5" d="M160.607,147.438a1.743,1.743,0,0,1,.507,1.257,1.934,1.934,0,0,1-.312,1.089,2.057,2.057,0,0,1-.895.739,3.318,3.318,0,0,1-1.38.264q-.291,0-.5-.011-.69-.021-1.359-.021-.884,0-1.337.032v-.216a2.141,2.141,0,0,0,.566-.086.387.387,0,0,0,.242-.248,1.948,1.948,0,0,0,.065-.593v-5.35a1.951,1.951,0,0,0-.065-.593.388.388,0,0,0-.242-.248,2.161,2.161,0,0,0-.566-.086v-.215q.453.032,1.315.032l1.164-.011c.136-.007.291-.011.464-.011a2.671,2.671,0,0,1,1.687.464,1.488,1.488,0,0,1,.588,1.229,1.758,1.758,0,0,1-.393,1.122,2.446,2.446,0,0,1-1.245.755v.022a2.853,2.853,0,0,1,1.693.685m-3.1-4a.427.427,0,0,0-.232.27,1.965,1.965,0,0,0-.065.582v2.438h.722a1.431,1.431,0,0,0,1.235-.48,2.122,2.122,0,0,0,.35-1.278,1.77,1.77,0,0,0-.356-1.208,1.476,1.476,0,0,0-1.154-.4,1.278,1.278,0,0,0-.5.076m2.528,5.21a1.718,1.718,0,0,0-.458-1.294,2.046,2.046,0,0,0-1.461-.442h-.906v2.729a1.853,1.853,0,0,0,.065.572.406.406,0,0,0,.232.253,1.4,1.4,0,0,0,.512.07q2.016,0,2.016-1.888" transform="translate(-113.232 -104.35)" fill="#1a1818"/>
    <path id="Path_6" data-name="Path 6" d="M185.765,154.685a2.143,2.143,0,0,1-.728,1.019,2,2,0,0,1-1.288.426,2.451,2.451,0,0,1-1.326-.35,2.261,2.261,0,0,1-.857-.981,3.4,3.4,0,0,1-.3-1.462,4.044,4.044,0,0,1,.3-1.629,2.408,2.408,0,0,1,.852-1.063,2.233,2.233,0,0,1,1.283-.372,1.893,1.893,0,0,1,1.493.588,2.621,2.621,0,0,1,.523,1.785h-3.375a6.522,6.522,0,0,0-.032.69,3.063,3.063,0,0,0,.232,1.24,1.978,1.978,0,0,0,.614.814,1.323,1.323,0,0,0,.8.286,1.7,1.7,0,0,0,.916-.248,1.859,1.859,0,0,0,.668-.831Zm-2.976-3.71a2.9,2.9,0,0,0-.453,1.467h2.351a3.1,3.1,0,0,0-.243-1.4.84.84,0,0,0-.782-.561,1.067,1.067,0,0,0-.873.5" transform="translate(-132.136 -109.542)" fill="#1a1818"/>
    <path id="Path_7" data-name="Path 7" d="M202.441,155.715a1.3,1.3,0,0,1-.329-.944,1.2,1.2,0,0,1,.264-.8,1.99,1.99,0,0,1,.625-.5,7.748,7.748,0,0,1,.954-.388,5.028,5.028,0,0,0,.895-.378.522.522,0,0,0,.291-.464v-.669a1.112,1.112,0,0,0-.264-.858,1.083,1.083,0,0,0-.738-.232,1.3,1.3,0,0,0-1.068.388.679.679,0,0,1,.361.227.646.646,0,0,1,.146.432.547.547,0,0,1-.172.426.633.633,0,0,1-.442.156.544.544,0,0,1-.453-.189.71.71,0,0,1-.151-.458.72.72,0,0,1,.124-.431,1.525,1.525,0,0,1,.372-.345,2.238,2.238,0,0,1,.658-.3,3.048,3.048,0,0,1,.873-.119,1.812,1.812,0,0,1,1.272.4,1.219,1.219,0,0,1,.361.6,3.758,3.758,0,0,1,.092.922v3a.751.751,0,0,0,.075.388.282.282,0,0,0,.259.119.515.515,0,0,0,.243-.059,1.4,1.4,0,0,0,.243-.167l.118.183a2.618,2.618,0,0,1-.48.307,1.2,1.2,0,0,1-.5.092.872.872,0,0,1-.722-.259,1.1,1.1,0,0,1-.2-.7,1.881,1.881,0,0,1-.744.75,2.092,2.092,0,0,1-.949.21,1.346,1.346,0,0,1-1.008-.34m2.7-.912v-2.114a.753.753,0,0,1-.27.248q-.172.1-.528.259a4.935,4.935,0,0,0-.663.329,1.449,1.449,0,0,0-.437.426,1.2,1.2,0,0,0-.183.69,1.022,1.022,0,0,0,.237.733.825.825,0,0,0,.625.248,1.445,1.445,0,0,0,1.218-.82" transform="translate(-147.33 -109.542)" fill="#1a1818"/>
    <path id="Path_8" data-name="Path 8" d="M227.035,154.9a1.146,1.146,0,0,0,.183.723.777.777,0,0,0,.636.227v.227q-.334-.033-.668-.033a3.516,3.516,0,0,0-1.121.151v-1.273a1.986,1.986,0,0,1-.733.981,1.844,1.844,0,0,1-1.035.313,1.472,1.472,0,0,1-1.121-.41,1.24,1.24,0,0,1-.275-.55,3.773,3.773,0,0,1-.081-.863v-2.707a1.147,1.147,0,0,0-.183-.723.777.777,0,0,0-.636-.227v-.227q.334.033.668.033a3.524,3.524,0,0,0,1.121-.151v4.239a3.665,3.665,0,0,0,.049.664.73.73,0,0,0,.226.415.789.789,0,0,0,.545.162,1.187,1.187,0,0,0,.744-.259,1.712,1.712,0,0,0,.523-.707,2.515,2.515,0,0,0,.189-.987v-2.233a1.146,1.146,0,0,0-.183-.723.777.777,0,0,0-.636-.227v-.227q.334.033.668.033a3.525,3.525,0,0,0,1.121-.151Z" transform="translate(-161.827 -109.629)" fill="#1a1818"/>
    <path id="Path_9" data-name="Path 9" d="M247.633,146.026h1.6v.216h-1.6v4.174a1.1,1.1,0,0,0,.178.7.625.625,0,0,0,.512.216.735.735,0,0,0,.571-.27,2.216,2.216,0,0,0,.4-.884l.215.054q-.269,1.488-1.4,1.488a1.791,1.791,0,0,1-.6-.086,1.132,1.132,0,0,1-.42-.27,1.26,1.26,0,0,1-.329-.582,3.743,3.743,0,0,1-.092-.928v-3.613h-1.035v-.216h1.035v-1.65a3.351,3.351,0,0,0,.97-.151Z" transform="translate(-179.051 -105.133)" fill="#1a1818"/>
    <path id="Path_10" data-name="Path 10" d="M265.753,150.831v.216a.608.608,0,0,0-.383.194,1.712,1.712,0,0,0-.318.561l-1.768,4.638-.366.938a1.922,1.922,0,0,1-.464.755.941.941,0,0,1-.388.216,1.641,1.641,0,0,1-.453.064.792.792,0,0,1-.528-.172.588.588,0,0,1-.2-.475.571.571,0,0,1,.151-.415.556.556,0,0,1,.42-.156.581.581,0,0,1,.394.135.466.466,0,0,1,.156.372.523.523,0,0,1-.291.485.153.153,0,0,0,.065.011q.593,0,.916-.841l.377-.982-1.952-4.713a1.227,1.227,0,0,0-.366-.485.673.673,0,0,0-.367-.118v-.227a7.715,7.715,0,0,0,1.057.065q.539,0,1.4-.065v.227a1.8,1.8,0,0,0-.566.064.293.293,0,0,0-.178.313,1.375,1.375,0,0,0,.129.528l1.294,3.214,1.2-3.117a1.582,1.582,0,0,0,.119-.5.4.4,0,0,0-.194-.367,1.432,1.432,0,0,0-.615-.151v-.216q.571.033.906.033.475,0,.819-.033" transform="translate(-189.807 -109.948)" fill="#1a1818"/>
    <path id="Path_11" data-name="Path 11" d="M297.54,151a3.938,3.938,0,0,1,0,4.406,2.538,2.538,0,0,1-3.547,0,3.937,3.937,0,0,1,0-4.406,2.524,2.524,0,0,1,3.547,0m-2.8.151a5.768,5.768,0,0,0,0,4.1,1.126,1.126,0,0,0,2.049,0,5.768,5.768,0,0,0,0-4.1,1.123,1.123,0,0,0-2.049,0" transform="translate(-213.815 -109.542)" fill="#1a1818"/>
    <path id="Path_12" data-name="Path 12" d="M318.909,140.5a.828.828,0,0,1,.334.669.553.553,0,0,1-.571.572.6.6,0,0,1-.42-.156.545.545,0,0,1-.172-.426.533.533,0,0,1,.124-.367.586.586,0,0,1,.329-.183.29.29,0,0,0-.172-.173.852.852,0,0,0-.356-.065.816.816,0,0,0-.42.108.728.728,0,0,0-.28.291,1.665,1.665,0,0,0-.156.636q-.038.42-.038,1.413v.28h1.154v.216h-1.154v4.217a.773.773,0,0,0,.285.69,1.535,1.535,0,0,0,.857.194v.227l-.259-.011q-1.1-.032-1.4-.033-.281,0-1.272.043v-.227a.943.943,0,0,0,.636-.167.806.806,0,0,0,.184-.609v-4.325h-.863V143.1h.863a6.951,6.951,0,0,1,.118-1.467,2.041,2.041,0,0,1,.431-.884,1.516,1.516,0,0,1,.55-.394,1.815,1.815,0,0,1,.733-.146,1.49,1.49,0,0,1,.938.291" transform="translate(-229.821 -102.203)" fill="#1a1818"/>
    <path id="Path_13" data-name="Path 13" d="M343.76,143.366a2.144,2.144,0,0,0-.566.086.387.387,0,0,0-.243.248,1.943,1.943,0,0,0-.065.593v5.35a1.94,1.94,0,0,0,.065.593.371.371,0,0,0,.243.243,1.946,1.946,0,0,0,.566.059h.787a2.2,2.2,0,0,0,1.019-.189,1.115,1.115,0,0,0,.512-.609,4.841,4.841,0,0,0,.237-1.219h.248q-.032.335-.032.884,0,.615.075,1.381-.733-.033-2.469-.033-2.07,0-3.127.033v-.216a2.136,2.136,0,0,0,.566-.086.386.386,0,0,0,.243-.248,1.949,1.949,0,0,0,.065-.593v-5.35a1.951,1.951,0,0,0-.065-.593.387.387,0,0,0-.243-.248,2.148,2.148,0,0,0-.566-.086v-.215q.453.032,1.38.032.862,0,1.369-.032Z" transform="translate(-248.58 -104.35)" fill="#1a1818"/>
    <path id="Path_14" data-name="Path 14" d="M369.395,154.9a1.146,1.146,0,0,0,.183.723.777.777,0,0,0,.636.227v.227q-.334-.033-.668-.033a3.517,3.517,0,0,0-1.121.151v-1.273a1.986,1.986,0,0,1-.733.981,1.843,1.843,0,0,1-1.035.313,1.472,1.472,0,0,1-1.121-.41,1.24,1.24,0,0,1-.275-.55,3.771,3.771,0,0,1-.081-.863v-2.707a1.147,1.147,0,0,0-.183-.723.777.777,0,0,0-.636-.227v-.227q.334.033.669.033a3.523,3.523,0,0,0,1.121-.151v4.239a3.668,3.668,0,0,0,.049.664.73.73,0,0,0,.226.415.789.789,0,0,0,.545.162,1.187,1.187,0,0,0,.744-.259,1.712,1.712,0,0,0,.523-.707,2.515,2.515,0,0,0,.189-.987v-2.233a1.146,1.146,0,0,0-.183-.723.777.777,0,0,0-.636-.227v-.227q.334.033.668.033a3.526,3.526,0,0,0,1.121-.151Z" transform="translate(-265.601 -109.629)" fill="#1a1818"/>
    <path id="Path_15" data-name="Path 15" d="M393.553,156a.756.756,0,0,0,.34.156v.227c-.374-.029-.629-.043-.765-.043q-.367,0-1.272.043v-.227a.629.629,0,0,0,.3-.065.193.193,0,0,0,.124-.172.2.2,0,0,0-.043-.13L391,154l-.787,1.025a1.2,1.2,0,0,0-.3.647.388.388,0,0,0,.21.351,1.313,1.313,0,0,0,.587.146v.216q-.561-.033-1.229-.033-.474,0-.819.033v-.216a.857.857,0,0,0,.437-.194,3.038,3.038,0,0,0,.512-.561l1.24-1.628-1.5-2.19a2.08,2.08,0,0,0-.345-.415.622.622,0,0,0-.323-.124v-.226q.56.043.766.043.366,0,1.272-.043v.226a.63.63,0,0,0-.3.065.194.194,0,0,0-.124.173.2.2,0,0,0,.043.129l1.154,1.683.744-1.046a1.465,1.465,0,0,0,.324-.68.254.254,0,0,0-.146-.232,1.185,1.185,0,0,0-.469-.1v-.216q.56.032.906.032.474,0,.819-.032v.216a1.584,1.584,0,0,0-.949.755l-1.089,1.51,1.585,2.308a2.163,2.163,0,0,0,.329.383" transform="translate(-283.317 -109.948)" fill="#1a1818"/>
    <path id="Path_16" data-name="Path 16" d="M415.138,154.9a1.146,1.146,0,0,0,.183.723.777.777,0,0,0,.636.227v.227q-.334-.033-.668-.033a3.517,3.517,0,0,0-1.121.151v-1.273a1.986,1.986,0,0,1-.733.981,1.844,1.844,0,0,1-1.035.313,1.472,1.472,0,0,1-1.121-.41,1.24,1.24,0,0,1-.275-.55,3.775,3.775,0,0,1-.081-.863v-2.707a1.147,1.147,0,0,0-.183-.723.777.777,0,0,0-.636-.227v-.227q.334.033.669.033a3.523,3.523,0,0,0,1.121-.151v4.239a3.664,3.664,0,0,0,.049.664.73.73,0,0,0,.226.415.789.789,0,0,0,.545.162,1.187,1.187,0,0,0,.744-.259,1.711,1.711,0,0,0,.523-.707,2.514,2.514,0,0,0,.189-.987v-2.233a1.147,1.147,0,0,0-.183-.723.777.777,0,0,0-.636-.227v-.227q.334.033.668.033a3.525,3.525,0,0,0,1.121-.151Z" transform="translate(-298.945 -109.629)" fill="#1a1818"/>
    <path id="Path_17" data-name="Path 17" d="M438.784,150.522a.784.784,0,0,1,.275.6.722.722,0,0,1-.167.48.553.553,0,0,1-.447.2.582.582,0,0,1-.4-.151.524.524,0,0,1-.167-.41.67.67,0,0,1,.366-.582.258.258,0,0,0-.226-.108,1.085,1.085,0,0,0-.765.329,2.289,2.289,0,0,0-.539.8,2.37,2.37,0,0,0-.194.895v2.287a.774.774,0,0,0,.286.69,1.533,1.533,0,0,0,.857.194v.227l-.259-.011q-1.1-.032-1.4-.032-.281,0-1.272.043v-.227a.945.945,0,0,0,.636-.167.808.808,0,0,0,.183-.61V151.6a1.148,1.148,0,0,0-.183-.723.777.777,0,0,0-.636-.226v-.227q.345.033.668.032a3.517,3.517,0,0,0,1.121-.151v1.348a2.548,2.548,0,0,1,.62-.96,1.315,1.315,0,0,1,.944-.421,1.014,1.014,0,0,1,.706.248" transform="translate(-316.893 -109.542)" fill="#1a1818"/>
    <path id="Path_18" data-name="Path 18" d="M457.476,150.831v.216a.608.608,0,0,0-.383.194,1.711,1.711,0,0,0-.318.561l-1.768,4.638-.366.938a1.923,1.923,0,0,1-.464.755.941.941,0,0,1-.388.216,1.641,1.641,0,0,1-.453.064.792.792,0,0,1-.528-.172.588.588,0,0,1-.2-.475.571.571,0,0,1,.151-.415.556.556,0,0,1,.42-.156.581.581,0,0,1,.394.135.466.466,0,0,1,.156.372.523.523,0,0,1-.291.485.153.153,0,0,0,.065.011q.593,0,.916-.841l.377-.982-1.952-4.713a1.227,1.227,0,0,0-.366-.485.673.673,0,0,0-.367-.118v-.227a7.715,7.715,0,0,0,1.056.065q.539,0,1.4-.065v.227a1.8,1.8,0,0,0-.566.064.293.293,0,0,0-.178.313,1.376,1.376,0,0,0,.129.528l1.294,3.214,1.2-3.117a1.581,1.581,0,0,0,.119-.5.4.4,0,0,0-.194-.367,1.431,1.431,0,0,0-.615-.151v-.216q.571.033.906.033.474,0,.819-.033" transform="translate(-329.564 -109.948)" fill="#1a1818"/>
  </g>
</svg>
